<?xml version="1.0" encoding="utf-8"?>
<!-- Generator: Adobe Illustrator 23.0.3, SVG Export Plug-In . SVG Version: 6.00 Build 0)  -->
<!DOCTYPE svg PUBLIC "-//W3C//DTD SVG 1.1//EN" "http://www.w3.org/Graphics/SVG/1.1/DTD/svg11.dtd" [
	<!ENTITY st0 "fill:#FFFFFF;">
]>
<svg version="1.1" id="Capa_1" xmlns="http://www.w3.org/2000/svg" xmlns:xlink="http://www.w3.org/1999/xlink" x="0px" y="0px"
	 viewBox="0 0 331.21 184.53" style="enable-background:new 0 0 331.21 184.53;" xml:space="preserve">
<path id="Rectángulo_7" style="&st0;" d="M92.27,0h146.68c50.96,0,92.27,41.31,92.27,92.27l0,0c0,50.96-41.31,92.27-92.27,92.27
	H92.27C41.31,184.53,0,143.22,0,92.27l0,0C0,41.31,41.31,0,92.27,0z"/>
<g id="facebook-letter-logo" transform="translate(48.787 18.027)">
	<path id="Facebook" d="M107.48,51.52V61.9h-7.62v12.7h7.62v37.75h15.63V74.61h10.49c0,0,0.98-6.09,1.46-12.75h-11.88v-8.68
		c0.29-1.68,1.69-2.93,3.39-3.05h8.53V36.9h-11.58C107.09,36.9,107.48,49.62,107.48,51.52z"/>
</g>
</svg>
