<?xml version="1.0" encoding="utf-8"?>
<!-- Generator: Adobe Illustrator 23.0.3, SVG Export Plug-In . SVG Version: 6.00 Build 0)  -->
<!DOCTYPE svg PUBLIC "-//W3C//DTD SVG 1.1//EN" "http://www.w3.org/Graphics/SVG/1.1/DTD/svg11.dtd" [
	<!ENTITY st0 "fill:#FFFFFF;">
]>
<svg version="1.1" id="Capa_1" xmlns="http://www.w3.org/2000/svg" xmlns:xlink="http://www.w3.org/1999/xlink" x="0px" y="0px"
	 viewBox="0 0 331.21 184.53" style="enable-background:new 0 0 331.21 184.53;" xml:space="preserve">
<g id="Grupo_12" transform="translate(-188.658 -705.954)">
	<path id="Rectángulo_8" style="&st0;" d="M280.92,705.95H427.6c50.96,0,92.27,41.31,92.27,92.27l0,0
		c0,50.96-41.31,92.27-92.27,92.27H280.92c-50.96,0-92.27-41.31-92.27-92.27l0,0C188.66,747.26,229.97,705.95,280.92,705.95z"/>
	<g id="instagram" transform="translate(227.981 720.981)">
		<g id="Grupo_4">
			<g id="Grupo_3" transform="translate(-1.552 -1.552)">
				<path id="Trazado_4" d="M146.74,27.58h-37.87c-17.43,0-31.56,14.13-31.56,31.56v37.87c0,17.43,14.13,31.56,31.56,31.56h37.87
					c17.43,0,31.56-14.13,31.56-31.56V59.14C178.3,41.71,164.17,27.59,146.74,27.58z M168.83,97.01
					c-0.01,12.19-9.9,22.08-22.09,22.09h-37.87c-12.19-0.01-22.08-9.9-22.09-22.09V59.14c0.01-12.19,9.9-22.08,22.09-22.09h37.87
					c12.19,0.01,22.08,9.9,22.09,22.09V97.01z"/>
			</g>
		</g>
		<g id="Grupo_6" transform="translate(7.51 7.51)">
			<g id="Grupo_5">
				<path id="Trazado_5" d="M118.75,46.13c-12.64,0-22.88,10.25-22.88,22.88c0,12.64,10.25,22.88,22.88,22.88
					s22.88-10.25,22.88-22.88v0C141.63,56.38,131.39,46.13,118.75,46.13z M118.75,83.31c-7.9,0-14.3-6.4-14.3-14.3
					s6.4-14.3,14.3-14.3s14.3,6.4,14.3,14.3v0C133.04,76.9,126.64,83.3,118.75,83.31z"/>
			</g>
		</g>
		<g id="Grupo_8" transform="translate(22.091 5.946)">
			<g id="Grupo_7" transform="translate(-0.502 -0.502)">
				<circle id="Elipse_1" cx="129.26" cy="46.48" r="4.58"/>
			</g>
		</g>
	</g>
</g>
</svg>
