<?xml version="1.0" encoding="utf-8"?>
<!-- Generator: Adobe Illustrator 23.0.3, SVG Export Plug-In . SVG Version: 6.00 Build 0)  -->
<!DOCTYPE svg PUBLIC "-//W3C//DTD SVG 1.1//EN" "http://www.w3.org/Graphics/SVG/1.1/DTD/svg11.dtd" [
	<!ENTITY st0 "fill:#FFFFFF;">
]>
<svg version="1.1" id="Capa_1" xmlns="http://www.w3.org/2000/svg" xmlns:xlink="http://www.w3.org/1999/xlink" x="0px" y="0px"
	 viewBox="0 0 408.48 408.48" style="enable-background:new 0 0 408.48 408.48;" xml:space="preserve">
<g>
	<g>
		<path style="&st0;" d="M87.75,388.78c0.46,11.01,9.52,19.7,20.54,19.7H300.2c11.02,0,20.08-8.69,20.54-19.7l13.7-289.32H74.04
			L87.75,388.78z M247.65,171.33c0-4.61,3.74-8.35,8.35-8.35h13.36c4.61,0,8.35,3.74,8.35,8.35v165.29c0,4.61-3.74,8.35-8.35,8.35
			h-13.36c-4.61,0-8.35-3.74-8.35-8.35V171.33z M189.22,171.33c0-4.61,3.74-8.35,8.35-8.35h13.35c4.61,0,8.35,3.74,8.35,8.35v165.29
			c0,4.61-3.74,8.35-8.35,8.35h-13.35c-4.61,0-8.35-3.74-8.35-8.35V171.33L189.22,171.33z M130.77,171.33
			c0-4.61,3.74-8.35,8.35-8.35h13.36c4.61,0,8.35,3.74,8.35,8.35v165.29c0,4.61-3.74,8.35-8.35,8.35h-13.36
			c-4.61,0-8.35-3.74-8.35-8.35V171.33z"/>
		<path style="&st0;" d="M343.57,21.04h-88.54V4.3c0-2.38-1.93-4.3-4.3-4.3h-92.97c-2.38,0-4.3,1.93-4.3,4.3v16.74H64.92
			c-7.13,0-12.9,5.78-12.9,12.9v40.53h304.45V33.94C356.47,26.82,350.69,21.04,343.57,21.04z"/>
	</g>
</g>
</svg>
